<svg xmlns="http://www.w3.org/2000/svg" xmlns:xlink="http://www.w3.org/1999/xlink" width="500" zoomAndPan="magnify" viewBox="0 0 375 374.999991" height="500" preserveAspectRatio="xMidYMid meet" version="1.0"><defs><clipPath id="25e218d4e9"><path d="M 78 309 L 297 309 L 297 353.0625 L 78 353.0625 Z M 78 309 " clip-rule="nonzero"/></clipPath><clipPath id="5018a45c74"><path d="M 3.632812 132 L 26 132 L 26 231 L 3.632812 231 Z M 3.632812 132 " clip-rule="nonzero"/></clipPath><clipPath id="b98ec8d519"><path d="M 349 132 L 371.132812 132 L 371.132812 231 L 349 231 Z M 349 132 " clip-rule="nonzero"/></clipPath></defs><g clip-path="url(#25e218d4e9)"><path fill="#e81899" d="M 187.496094 328.875 C 150.277344 328.742188 113.386719 322.277344 78.328125 309.773438 L 78.328125 329.558594 C 78.328125 331.972656 79.894531 334.160156 82.179688 334.945312 C 114.988281 346.5 149.460938 352.605469 184.230469 353.0625 L 190.890625 353.0625 C 225.65625 352.574219 260.132812 346.4375 292.90625 334.847656 C 295.257812 334.0625 296.824219 331.875 296.859375 329.429688 L 296.859375 309.675781 L 296.140625 309.675781 C 261.273438 322.179688 224.515625 328.675781 187.496094 328.875 " fill-opacity="1" fill-rule="nonzero"/></g><g clip-path="url(#5018a45c74)"><path fill="#e81899" d="M 3.632812 154.640625 L 3.632812 208.507812 C 3.632812 214.285156 5.886719 219.835938 9.933594 223.980469 C 13.949219 228.128906 19.464844 230.511719 25.246094 230.675781 C 20.445312 214.742188 18.03125 198.222656 17.996094 181.609375 C 17.996094 164.957031 20.414062 148.40625 25.246094 132.476562 C 19.464844 132.640625 13.949219 135.023438 9.933594 139.167969 C 5.886719 143.3125 3.632812 148.863281 3.632812 154.640625 " fill-opacity="1" fill-rule="nonzero"/></g><g clip-path="url(#b98ec8d519)"><path fill="#e81899" d="M 349.679688 132.476562 C 354.511719 148.40625 356.960938 164.957031 356.925781 181.609375 C 356.925781 198.222656 354.476562 214.742188 349.679688 230.675781 C 355.488281 230.542969 361.007812 228.128906 365.023438 223.980469 C 369.070312 219.835938 371.355469 214.285156 371.355469 208.507812 L 371.355469 154.640625 C 371.355469 148.863281 369.070312 143.3125 365.023438 139.167969 C 361.007812 135.023438 355.488281 132.605469 349.679688 132.476562 " fill-opacity="1" fill-rule="nonzero"/></g><path fill="#e81899" d="M 187.496094 90.492188 C 141.007812 90.492188 100.460938 101.039062 84.074219 117.296875 C 72.582031 128.785156 65.300781 161.335938 66.835938 194.242188 C 68.175781 219.019531 74.375 238.183594 83.453125 245.5625 C 123.214844 277.78125 251.21875 277.78125 290.917969 245.5625 C 300.058594 238.183594 306.261719 219.019531 307.566406 194.242188 C 309.328125 161.335938 301.820312 128.984375 290.328125 117.296875 C 274.496094 101.167969 233.980469 90.492188 187.496094 90.492188 " fill-opacity="1" fill-rule="nonzero"/><path fill="#e81899" d="M 319.320312 195.058594 C 317.816406 223.425781 310.210938 245.136719 298.457031 254.667969 C 276.648438 272.332031 232.089844 281.113281 187.496094 281.113281 C 142.898438 281.113281 98.339844 272.332031 76.5 254.667969 C 65.007812 245.136719 57.171875 223.425781 55.636719 195.058594 C 54.070312 165.21875 59.785156 125.683594 76.074219 109.363281 C 98.273438 87.097656 148.1875 78.96875 187.496094 78.96875 C 226.800781 78.96875 276.648438 86.902344 298.914062 109.199219 C 315.171875 125.683594 320.917969 165.152344 319.285156 195.058594 Z M 187.496094 23.242188 C 155.699219 23.308594 124.652344 32.972656 98.402344 50.925781 C 72.15625 68.882812 51.949219 94.3125 40.359375 123.921875 C 28.769531 153.566406 26.386719 185.980469 33.472656 216.964844 C 40.589844 247.976562 56.847656 276.117188 80.15625 297.730469 C 80.742188 298.285156 81.429688 298.707031 82.179688 298.9375 C 115.96875 311.015625 151.585938 317.25 187.496094 317.382812 C 223.371094 317.25 258.988281 311.015625 292.808594 298.9375 C 293.5625 298.707031 294.277344 298.285156 294.835938 297.730469 C 318.109375 276.085938 334.367188 247.945312 341.417969 216.964844 C 348.535156 185.980469 346.121094 153.566406 334.53125 123.957031 C 322.976562 94.378906 302.734375 68.945312 276.519531 50.960938 C 250.304688 33.003906 219.257812 23.339844 187.496094 23.242188 " fill-opacity="1" fill-rule="nonzero"/><path fill="#e81899" d="M 364.632812 48.183594 C 364.632812 41.917969 362.246094 35.84375 358.003906 31.242188 C 353.761719 26.636719 347.917969 23.796875 341.648438 23.308594 C 335.378906 22.820312 329.175781 24.710938 324.214844 28.597656 C 319.320312 32.515625 316.019531 38.097656 315.074219 44.332031 C 314.09375 50.535156 315.5 56.867188 318.992188 62.089844 C 322.519531 67.28125 327.839844 71.003906 333.945312 72.441406 L 333.945312 96.238281 C 338.449219 103.84375 342.300781 111.8125 345.433594 120.070312 L 345.433594 72.441406 C 350.886719 71.132812 355.785156 68.03125 359.246094 63.660156 C 362.738281 59.25 364.632812 53.800781 364.632812 48.183594 " fill-opacity="1" fill-rule="nonzero"/></svg>