<svg xmlns="http://www.w3.org/2000/svg" xmlns:xlink="http://www.w3.org/1999/xlink" width="525" zoomAndPan="magnify" viewBox="0 0 393.75 89.999999" height="120" preserveAspectRatio="xMidYMid meet" version="1.0"><defs><g/><clipPath id="5ee0ac931d"><path d="M 18 74.230469 L 73 74.230469 L 73 85.355469 L 18 85.355469 Z M 18 74.230469 " clip-rule="nonzero"/></clipPath><clipPath id="fe8110a642"><path d="M 0.75 31 L 7 31 L 7 56 L 0.75 56 Z M 0.75 31 " clip-rule="nonzero"/></clipPath><clipPath id="8a71f1d076"><path d="M 85 31 L 90.691406 31 L 90.691406 56 L 85 56 Z M 85 31 " clip-rule="nonzero"/></clipPath><clipPath id="2f9e6328e2"><path d="M 7 4.269531 L 85 4.269531 L 85 77 L 7 77 Z M 7 4.269531 " clip-rule="nonzero"/></clipPath><clipPath id="f8116716b9"><path d="M 76 4.269531 L 89 4.269531 L 89 29 L 76 29 Z M 76 4.269531 " clip-rule="nonzero"/></clipPath></defs><g fill="#e81899" fill-opacity="1"><g transform="translate(117.43632, 69.045725)"><g><path d="M 25.953125 -11.214844 C 20.777344 -8.699219 17.683594 -10.640625 17.683594 -17.183594 C 17.683594 -17.828125 17.683594 -20.34375 17.683594 -23.652344 L 26.597656 -23.652344 L 26.597656 -34.507812 L 17.683594 -34.507812 C 17.683594 -39.394531 17.683594 -43.421875 17.683594 -43.421875 L 5.535156 -41.910156 C 5.535156 -41.910156 5.535156 -38.675781 5.535156 -34.507812 L 0.71875 -34.507812 L 0.71875 -23.652344 L 5.535156 -23.652344 C 5.535156 -20.703125 5.535156 -18.1875 5.535156 -16.894531 C 5.535156 -7.40625 6.972656 1.078125 18.117188 1.078125 C 23.148438 1.078125 27.246094 -0.429688 28.613281 -1.292969 Z M 25.953125 -11.214844 "/></g></g></g><g fill="#e81899" fill-opacity="1"><g transform="translate(147.483521, 69.045725)"><g><path d="M 38.53125 0 L 27.175781 -17.757812 L 37.167969 -34.507812 L 23.9375 -34.507812 L 15.671875 -19.839844 L 15.671875 -50.324219 L 3.59375 -50.324219 L 3.59375 0 L 15.671875 0 L 15.671875 -15.457031 L 25.304688 0 Z M 38.53125 0 "/></g></g></g><g fill="#e81899" fill-opacity="1"><g transform="translate(185.294113, 69.045725)"><g><path d="M 20.847656 -35.65625 C 10.710938 -35.65625 2.15625 -27.460938 2.15625 -17.253906 C 2.15625 -7.117188 10.710938 1.078125 20.847656 1.078125 C 30.984375 1.078125 39.539062 -7.117188 39.539062 -17.253906 C 39.539062 -27.460938 30.984375 -35.65625 20.847656 -35.65625 Z M 20.847656 -9.921875 C 16.75 -9.921875 13.445312 -13.226562 13.445312 -17.253906 C 13.445312 -21.351562 16.75 -24.660156 20.847656 -24.660156 C 24.945312 -24.660156 28.253906 -21.351562 28.253906 -17.253906 C 28.253906 -13.226562 24.945312 -9.921875 20.847656 -9.921875 Z M 20.847656 -9.921875 "/></g></g></g><g fill="#e81899" fill-opacity="1"><g transform="translate(226.98641, 69.045725)"><g><path d="M 15.527344 -4.886719 C 15.527344 -8.125 12.796875 -10.785156 9.5625 -10.785156 C 6.253906 -10.785156 3.59375 -8.125 3.59375 -4.886719 C 3.59375 -1.582031 6.253906 1.078125 9.5625 1.078125 C 12.796875 1.078125 15.527344 -1.582031 15.527344 -4.886719 Z M 15.527344 -4.886719 "/></g></g></g><g fill="#e81899" fill-opacity="1"><g transform="translate(246.107359, 69.045725)"><g><path d="M 21.421875 -9.777344 C 17.46875 -9.992188 13.660156 -12.722656 13.660156 -17.253906 C 13.660156 -22.214844 17.46875 -24.585938 21.421875 -24.730469 C 24.082031 -24.875 26.167969 -23.867188 28.398438 -22.214844 L 35.226562 -30.121094 C 31.777344 -33.5 26.597656 -35.65625 21.421875 -35.65625 C 10.351562 -35.65625 2.15625 -27.390625 2.15625 -17.253906 C 2.15625 -7.117188 10.640625 1.078125 21.421875 1.078125 C 26.597656 1.078125 31.847656 -1.007812 35.226562 -4.457031 L 28.828125 -12.582031 C 26.816406 -10.925781 24.441406 -9.632812 21.421875 -9.777344 Z M 21.421875 -9.777344 "/></g></g></g><g fill="#e81899" fill-opacity="1"><g transform="translate(282.767821, 69.045725)"><g><path d="M 25.449219 -35.65625 C 21.710938 -35.65625 17.757812 -33.574219 15.671875 -31.199219 L 15.671875 -50.324219 L 3.59375 -50.324219 L 3.59375 0 L 15.671875 0 L 15.671875 -20.847656 C 15.816406 -24.660156 19.195312 -26.097656 21.421875 -26.097656 C 23.507812 -26.097656 26.527344 -24.585938 26.527344 -20.632812 L 26.527344 0 L 38.605469 0 L 38.605469 -22.140625 C 38.605469 -30.554688 34.21875 -35.65625 25.449219 -35.65625 Z M 25.449219 -35.65625 "/></g></g></g><g fill="#e81899" fill-opacity="1"><g transform="translate(324.963308, 69.045725)"><g><path d="M 19.265625 -35.65625 C 12.507812 -35.65625 6.46875 -33.070312 3.882812 -31.273438 L 7.1875 -23.4375 C 8.84375 -24.300781 13.085938 -26.238281 17.757812 -26.238281 C 22 -26.238281 22.789062 -23.148438 22.789062 -21.710938 C 20.34375 -21.640625 15.3125 -21.351562 12.078125 -20.777344 C 7.046875 -19.914062 2.011719 -16.535156 2.230469 -9.058594 C 2.515625 -0.214844 10.640625 1.078125 12.652344 1.078125 C 17.109375 1.078125 20.632812 -0.503906 22.789062 -3.378906 L 22.789062 0 L 34.867188 0 C 34.867188 0 34.867188 -11.933594 34.867188 -22.140625 C 34.867188 -32.78125 26.957031 -35.65625 19.265625 -35.65625 Z M 18.332031 -7.980469 C 14.164062 -7.980469 13.300781 -12.292969 15.886719 -14.089844 C 17.972656 -15.601562 22.789062 -15.382812 22.789062 -15.382812 C 22.789062 -15.382812 22.789062 -12.722656 22.789062 -11.644531 C 22.789062 -10.207031 21.78125 -7.980469 18.332031 -7.980469 Z M 18.332031 -7.980469 "/></g></g></g><g fill="#e81899" fill-opacity="1"><g transform="translate(363.420849, 69.045725)"><g><path d="M 25.953125 -11.214844 C 20.777344 -8.699219 17.683594 -10.640625 17.683594 -17.183594 C 17.683594 -17.828125 17.683594 -20.34375 17.683594 -23.652344 L 26.597656 -23.652344 L 26.597656 -34.507812 L 17.683594 -34.507812 C 17.683594 -39.394531 17.683594 -43.421875 17.683594 -43.421875 L 5.535156 -41.910156 C 5.535156 -41.910156 5.535156 -38.675781 5.535156 -34.507812 L 0.71875 -34.507812 L 0.71875 -23.652344 L 5.535156 -23.652344 C 5.535156 -20.703125 5.535156 -18.1875 5.535156 -16.894531 C 5.535156 -7.40625 6.972656 1.078125 18.117188 1.078125 C 23.148438 1.078125 27.246094 -0.429688 28.613281 -1.292969 Z M 25.953125 -11.214844 "/></g></g></g><g clip-path="url(#5ee0ac931d)"><path fill="#e81899" d="M 45.570312 79.457031 C 36.496094 79.425781 27.503906 77.851562 18.957031 74.800781 L 18.957031 79.625 C 18.957031 80.214844 19.339844 80.746094 19.894531 80.9375 C 27.894531 83.753906 36.296875 85.242188 44.773438 85.355469 L 46.394531 85.355469 C 54.871094 85.234375 63.273438 83.738281 71.265625 80.914062 C 71.839844 80.722656 72.21875 80.1875 72.226562 79.59375 L 72.226562 74.777344 L 72.054688 74.777344 C 63.554688 77.824219 54.59375 79.410156 45.570312 79.457031 " fill-opacity="1" fill-rule="nonzero"/></g><g clip-path="url(#fe8110a642)"><path fill="#e81899" d="M 0.75 36.984375 L 0.75 50.117188 C 0.75 51.523438 1.296875 52.878906 2.285156 53.886719 C 3.265625 54.898438 4.609375 55.480469 6.019531 55.519531 C 4.847656 51.636719 4.257812 47.609375 4.25 43.558594 C 4.25 39.5 4.839844 35.464844 6.019531 31.582031 C 4.609375 31.621094 3.265625 32.203125 2.285156 33.214844 C 1.296875 34.222656 0.75 35.578125 0.75 36.984375 " fill-opacity="1" fill-rule="nonzero"/></g><g clip-path="url(#8a71f1d076)"><path fill="#e81899" d="M 85.105469 31.582031 C 86.28125 35.464844 86.878906 39.5 86.871094 43.558594 C 86.871094 47.609375 86.273438 51.636719 85.105469 55.519531 C 86.519531 55.488281 87.867188 54.898438 88.84375 53.886719 C 89.832031 52.878906 90.386719 51.523438 90.386719 50.117188 L 90.386719 36.984375 C 90.386719 35.578125 89.832031 34.222656 88.84375 33.214844 C 87.867188 32.203125 86.519531 31.613281 85.105469 31.582031 " fill-opacity="1" fill-rule="nonzero"/></g><path fill="#e81899" d="M 45.570312 21.347656 C 34.238281 21.347656 24.351562 23.917969 20.359375 27.882812 C 17.558594 30.683594 15.78125 38.617188 16.15625 46.636719 C 16.480469 52.679688 17.996094 57.351562 20.207031 59.148438 C 29.898438 67.003906 61.101562 67.003906 70.78125 59.148438 C 73.007812 57.351562 74.519531 52.679688 74.839844 46.636719 C 75.269531 38.617188 73.4375 30.730469 70.636719 27.882812 C 66.777344 23.949219 56.902344 21.347656 45.570312 21.347656 " fill-opacity="1" fill-rule="nonzero"/><g clip-path="url(#2f9e6328e2)"><path fill="#e81899" d="M 77.703125 46.835938 C 77.335938 53.753906 75.484375 59.046875 72.617188 61.367188 C 67.300781 65.675781 56.4375 67.816406 45.570312 67.816406 C 34.699219 67.816406 23.835938 65.675781 18.511719 61.367188 C 15.710938 59.046875 13.800781 53.753906 13.425781 46.835938 C 13.042969 39.5625 14.4375 29.925781 18.410156 25.949219 C 23.820312 20.519531 35.988281 18.539062 45.570312 18.539062 C 55.148438 18.539062 67.300781 20.472656 72.730469 25.90625 C 76.691406 29.925781 78.09375 39.546875 77.695312 46.835938 Z M 45.570312 4.953125 C 37.816406 4.972656 30.25 7.328125 23.851562 11.703125 C 17.453125 16.082031 12.527344 22.28125 9.703125 29.496094 C 6.878906 36.722656 6.296875 44.625 8.023438 52.175781 C 9.757812 59.738281 13.722656 66.597656 19.402344 71.867188 C 19.546875 72 19.714844 72.105469 19.894531 72.160156 C 28.132812 75.105469 36.816406 76.625 45.570312 76.65625 C 54.316406 76.625 62.996094 75.105469 71.242188 72.160156 C 71.425781 72.105469 71.597656 72 71.734375 71.867188 C 77.410156 66.589844 81.371094 59.730469 83.089844 52.175781 C 84.824219 44.625 84.238281 36.722656 81.410156 29.503906 C 78.59375 22.296875 73.660156 16.097656 67.269531 11.710938 C 60.878906 7.335938 53.3125 4.980469 45.570312 4.953125 " fill-opacity="1" fill-rule="nonzero"/></g><g clip-path="url(#f8116716b9)"><path fill="#e81899" d="M 88.75 11.035156 C 88.75 9.507812 88.167969 8.027344 87.132812 6.90625 C 86.097656 5.78125 84.675781 5.089844 83.144531 4.972656 C 81.617188 4.851562 80.105469 5.3125 78.898438 6.261719 C 77.703125 7.214844 76.898438 8.574219 76.667969 10.097656 C 76.429688 11.609375 76.773438 13.152344 77.625 14.425781 C 78.484375 15.691406 79.78125 16.597656 81.269531 16.949219 L 81.269531 22.75 C 82.367188 24.601562 83.304688 26.542969 84.070312 28.558594 L 84.070312 16.949219 C 85.398438 16.628906 86.59375 15.875 87.433594 14.808594 C 88.285156 13.734375 88.75 12.402344 88.75 11.035156 " fill-opacity="1" fill-rule="nonzero"/></g></svg>